<?xml version="1.0" standalone="no"?>
<!DOCTYPE svg PUBLIC "-//W3C//DTD SVG 20010904//EN"
 "http://www.w3.org/TR/2001/REC-SVG-20010904/DTD/svg10.dtd">
<svg version="1.0" xmlns="http://www.w3.org/2000/svg"
 width="1137.000000pt" height="1137.000000pt" viewBox="0 0 1137.000000 1137.000000"
 preserveAspectRatio="xMidYMid meet">
<metadata>
Created by potrace 1.14, written by Peter Selinger 2001-2017
</metadata>
<g transform="translate(0.000000,1137.000000) scale(0.100000,-0.100000)"
fill="#000000" stroke="none">
<path d="M6653 8426 c-290 -145 -938 -468 -1440 -719 -502 -250 -909 -458
-905 -462 4 -4 0 -5 -9 -3 -19 4 -613 -293 -651 -325 -28 -24 -222 -205 -368
-343 -47 -44 -119 -111 -160 -149 -41 -38 -100 -92 -130 -121 -110 -104 -138
-130 -219 -203 -146 -131 -111 -81 134 194 44 50 87 95 95 102 8 7 12 13 9 13
-4 0 10 17 30 38 20 21 72 78 116 127 44 49 100 112 125 140 58 63 79 91 63
81 -7 -4 -13 -4 -13 1 0 4 -44 16 -97 26 -54 11 -174 34 -268 52 -93 19 -278
55 -410 80 -132 25 -307 59 -390 75 -508 100 -489 97 -500 81 -3 -6 -9 -40
-14 -78 -17 -124 -71 -517 -76 -558 -4 -22 -9 -58 -11 -80 -3 -22 -20 -148
-39 -280 -18 -132 -36 -267 -40 -300 -4 -33 -13 -95 -20 -137 l-13 -78 -68
-64 c-38 -35 -84 -76 -102 -91 -18 -15 -29 -32 -25 -38 3 -7 3 -9 -2 -5 -5 5
-33 -15 -64 -44 -31 -28 -85 -79 -121 -112 -84 -79 -299 -277 -369 -341 -30
-27 -80 -75 -111 -105 -30 -30 -70 -67 -88 -82 -18 -15 -92 -82 -165 -151 -73
-68 -154 -143 -181 -168 -116 -104 -110 -91 -85 -201 10 -43 29 -67 29 -36 0
6 3 8 6 5 4 -4 39 11 78 32 169 91 216 114 222 108 4 -4 11 -350 15 -769 5
-420 11 -773 14 -786 5 -20 11 -22 79 -22 l73 0 -2 53 c-1 28 -4 348 -6 710
l-4 658 25 14 c26 15 362 157 485 205 39 15 140 57 225 92 85 36 263 111 395
166 132 55 254 108 270 116 17 9 34 16 38 16 5 0 68 25 140 56 73 31 152 65
177 74 25 10 171 70 325 135 154 65 305 128 335 140 94 38 544 225 565 235 67
31 136 60 141 60 5 0 107 43 179 75 17 7 53 22 80 33 28 11 73 30 100 43 28
12 55 23 60 25 6 1 64 25 130 52 66 28 165 69 220 91 55 23 118 50 140 60 22
10 88 38 147 61 59 23 105 46 102 51 -3 5 1 6 9 4 7 -3 44 8 82 25 38 17 72
27 76 23 4 -4 10 -231 13 -503 3 -272 11 -904 17 -1405 6 -500 14 -998 17
-1105 l7 -195 360 0 c198 0 484 2 635 5 l275 5 55 33 c30 19 89 55 130 82 41
26 108 67 148 91 39 23 72 46 72 49 0 4 18 15 40 25 22 10 40 22 40 27 0 4 4
8 9 8 5 0 92 52 193 116 249 158 242 154 338 214 47 30 114 72 150 95 66 42
173 110 278 176 31 20 106 66 166 104 98 62 110 67 129 55 12 -7 91 -73 177
-146 85 -72 268 -227 405 -344 138 -117 277 -236 310 -264 71 -63 160 -138
264 -224 l76 -63 70 3 c39 2 70 8 70 13 0 6 -40 46 -90 90 -49 43 -92 82 -95
85 -3 3 -34 30 -70 60 -36 30 -67 57 -70 60 -3 3 -34 30 -70 60 -36 30 -67 58
-70 61 -22 28 -255 217 -262 213 -5 -3 -7 0 -6 6 2 7 -49 57 -112 112 -63 55
-128 112 -145 127 -104 92 -277 242 -316 274 l-47 37 -213 -30 c-118 -16 -232
-32 -254 -35 -39 -4 -474 -64 -630 -86 -79 -11 -82 -13 -300 -152 -121 -77
-276 -177 -345 -222 -69 -45 -159 -103 -200 -130 -41 -26 -104 -67 -140 -90
-36 -23 -137 -89 -225 -145 -248 -159 -427 -276 -464 -304 -19 -15 -42 -26
-51 -26 -21 0 -23 106 -40 1505 -22 1853 -22 1819 -8 1835 7 8 63 57 123 109
61 52 135 118 165 145 66 61 198 178 260 232 25 21 50 44 55 50 6 5 46 41 90
80 43 38 88 78 100 89 11 11 54 50 95 85 41 36 80 70 86 75 71 63 175 156 299
265 83 73 173 154 200 179 105 95 357 316 370 323 9 5 26 -12 54 -55 23 -35
41 -66 41 -70 0 -4 20 -38 45 -77 25 -39 45 -74 45 -79 0 -5 6 -16 13 -23 8
-7 20 -25 28 -40 53 -103 175 -305 182 -301 4 2 7 -3 7 -12 0 -18 36 -92 47
-97 5 -1 16 -19 25 -38 30 -60 58 -105 71 -115 6 -6 13 -16 15 -23 3 -18 105
-196 114 -200 5 -2 8 -8 8 -12 0 -5 25 -51 55 -102 30 -51 55 -96 55 -101 0
-4 4 -6 8 -3 5 3 9 0 9 -7 0 -23 95 -177 106 -170 6 3 7 1 3 -5 -4 -7 35 -82
88 -173 53 -88 96 -163 96 -167 0 -4 20 -38 45 -75 25 -38 45 -71 45 -74 0 -3
24 -46 54 -97 l54 -91 6 -150 c4 -82 13 -253 21 -380 8 -126 19 -324 26 -440
6 -115 15 -219 20 -230 7 -18 8 -18 9 5 0 14 11 203 25 420 13 217 24 410 24
428 1 43 14 43 208 -14 87 -26 181 -52 208 -60 60 -15 847 -238 1250 -354 99
-28 209 -60 245 -70 36 -10 112 -32 170 -49 58 -17 116 -33 129 -36 14 -2 28
-10 33 -17 4 -7 8 -89 8 -183 0 -351 11 -1256 16 -1422 l6 -173 110 0 111 0
-7 568 c-3 312 -9 716 -12 899 l-6 332 33 5 c19 2 84 12 144 21 185 27 167 18
159 83 -6 48 -21 82 -37 82 -4 0 -140 66 -777 378 -562 275 -1237 602 -1373
667 -21 10 -39 16 -41 14 -2 -2 20 -53 49 -114 29 -60 74 -156 100 -212 27
-56 52 -100 57 -97 4 3 5 -2 2 -10 -3 -8 1 -25 9 -38 8 -13 18 -33 22 -46 6
-21 4 -22 -31 -18 -20 3 -43 11 -50 18 -14 14 -98 151 -146 238 -17 30 -46 80
-65 110 -37 59 -76 123 -156 260 -27 47 -57 97 -66 111 -9 15 -31 53 -50 85
-137 237 -215 364 -222 364 -5 0 -9 8 -9 18 0 15 -42 87 -59 102 -3 3 -7 11
-8 17 -2 7 -24 45 -49 84 -25 40 -48 79 -51 88 -3 9 -16 30 -28 46 -12 17 -25
40 -29 53 -4 12 -12 22 -17 22 -5 0 -9 6 -9 13 0 8 -13 33 -28 58 -16 24 -58
93 -93 152 -35 60 -71 120 -80 135 -9 15 -26 45 -39 67 -36 64 -219 375 -260
440 -55 88 -130 217 -130 222 0 2 -13 23 -28 46 -16 23 -68 112 -118 197 -49
85 -102 176 -119 202 -16 26 -43 68 -59 94 -32 50 -73 74 -130 74 -25 0 -177
-71 -563 -264z m531 51 c8 -7 21 -28 31 -47 9 -18 31 -54 49 -80 17 -25 36
-55 43 -65 6 -11 51 -85 100 -165 48 -80 90 -147 93 -150 3 -3 30 -45 59 -95
30 -49 67 -106 83 -126 15 -20 28 -40 28 -43 0 -4 19 -37 43 -74 24 -37 61
-97 82 -134 21 -37 43 -64 48 -61 6 3 7 1 3 -5 -3 -6 1 -17 9 -25 8 -9 15 -18
15 -21 0 -7 80 -139 89 -146 3 -3 12 -16 20 -30 51 -89 187 -306 193 -308 4
-2 8 -7 8 -12 0 -5 30 -57 68 -115 71 -113 71 -113 116 -190 16 -28 32 -52 36
-55 4 -3 29 -42 55 -87 26 -46 54 -88 61 -94 8 -6 14 -15 14 -19 0 -8 74 -131
142 -236 25 -39 53 -84 62 -100 9 -16 24 -41 34 -56 9 -15 50 -80 91 -145 41
-65 94 -149 119 -188 114 -178 131 -210 123 -218 -9 -9 -60 4 -221 58 l-95 31
-5 101 c-5 94 -7 103 -36 139 -17 22 -39 55 -49 74 -17 34 -40 71 -132 211
-24 37 -43 69 -43 73 0 12 -121 199 -132 204 -5 2 -8 8 -8 14 0 9 -290 482
-375 613 -18 28 -45 71 -60 98 -15 26 -31 47 -36 47 -5 0 -9 6 -9 14 0 8 -7
21 -15 30 -9 8 -15 18 -15 21 1 6 -107 183 -223 367 -79 124 -250 402 -277
448 -11 19 -43 69 -70 110 -27 41 -56 89 -63 105 -8 17 -23 38 -34 48 -19 17
-23 15 -119 -75 -102 -96 -287 -267 -478 -442 -61 -56 -139 -129 -175 -162
-37 -34 -91 -83 -121 -110 -30 -27 -100 -92 -155 -144 -55 -52 -149 -140 -209
-195 -60 -55 -114 -105 -120 -110 -6 -6 -42 -39 -81 -75 -38 -35 -106 -98
-150 -139 -44 -42 -130 -121 -189 -176 -60 -55 -140 -129 -178 -165 -115 -107
-101 -105 -180 -19 -37 41 -68 79 -68 86 0 9 170 175 295 288 17 15 75 68 130
119 55 51 120 110 145 132 24 21 51 46 60 54 9 8 74 69 145 135 71 66 170 158
220 205 50 47 169 157 264 245 96 88 186 171 201 185 14 14 86 81 160 149 74
68 158 145 185 171 28 25 111 102 185 170 74 68 146 134 160 147 29 26 36 28
54 10z m-5329 -1662 c37 -66 77 -138 90 -160 12 -22 103 -184 201 -360 98
-176 190 -342 206 -370 15 -27 28 -55 28 -61 0 -13 -86 -50 -425 -185 -126
-50 -243 -97 -260 -104 -56 -25 -104 -39 -111 -32 -4 3 1 62 10 129 9 68 36
287 61 488 25 201 52 421 60 490 9 69 20 162 25 207 5 46 12 88 16 94 10 16
23 -2 99 -136z m3003 -562 c45 -32 82 -61 82 -65 0 -11 -91 -51 -365 -160 -55
-21 -113 -45 -130 -53 -16 -7 -70 -29 -120 -50 -49 -20 -110 -45 -135 -55
-105 -44 -306 -127 -455 -187 -88 -35 -174 -70 -191 -78 -17 -8 -103 -43 -190
-79 -87 -35 -226 -92 -309 -126 -82 -34 -181 -75 -220 -90 -38 -15 -119 -49
-180 -75 -60 -25 -166 -68 -235 -95 -69 -27 -217 -87 -330 -134 -113 -47 -208
-86 -212 -86 -5 0 -36 -13 -70 -29 -35 -16 -117 -50 -183 -76 -66 -26 -138
-55 -160 -65 -22 -10 -80 -34 -130 -54 -49 -21 -103 -43 -120 -50 -58 -26
-410 -163 -435 -170 -40 -10 307 161 405 200 17 6 75 33 130 59 55 26 123 57
150 69 28 13 96 44 151 69 56 26 104 47 107 47 2 0 75 34 161 75 86 41 159 75
161 75 3 0 99 43 213 96 205 95 245 113 352 161 30 14 89 41 130 60 41 20 138
64 215 98 77 35 176 80 220 100 142 66 426 196 595 272 91 41 169 78 174 84 6
5 15 9 22 9 7 0 50 18 96 39 45 21 127 60 181 85 55 25 101 46 103 46 4 0 240
109 349 161 33 15 67 28 76 29 8 0 52 -26 97 -57z"/>
<path d="M1850 6406 c0 -2 -5 -28 -10 -57 -6 -30 -15 -83 -20 -119 -5 -36 -18
-117 -29 -180 -25 -141 -24 -161 4 -150 53 20 254 121 260 130 3 5 -24 67 -61
137 -38 71 -79 151 -93 180 -13 29 -30 54 -38 57 -7 3 -13 4 -13 2z"/>
<path d="M6815 6470 c-245 -31 -451 -197 -539 -435 -27 -74 -30 -92 -33 -245
-2 -91 0 -434 4 -762 7 -506 11 -600 23 -611 9 -8 149 -35 340 -66 179 -28
393 -63 475 -76 83 -14 211 -34 285 -45 74 -11 148 -23 164 -26 l29 -6 -7 783
c-3 431 -9 825 -13 874 -7 110 -47 235 -99 313 -51 77 -154 184 -171 177 -8
-2 -12 -1 -9 4 8 13 -150 89 -219 105 -82 19 -158 24 -230 16z m21 -170 l27
-11 -7 -87 c-4 -48 -9 -119 -13 -159 l-6 -72 -55 -16 c-55 -17 -56 -16 -74 7
-9 13 -18 26 -18 30 0 5 -22 48 -50 97 -48 88 -49 90 -34 120 39 77 150 121
230 91z m267 -50 c72 -49 128 -122 141 -187 7 -28 1 -38 -59 -107 -37 -42 -68
-76 -70 -76 -1 0 -30 18 -64 41 -57 38 -61 43 -57 73 3 17 8 87 12 156 3 69 8
129 11 133 7 11 39 -1 86 -33z m-527 -262 c27 -35 55 -70 61 -79 11 -14 6 -27
-30 -81 -23 -36 -46 -72 -52 -81 -9 -15 -17 -15 -92 4 l-83 21 0 39 c0 43 23
108 54 154 32 47 69 85 81 85 7 0 34 -28 61 -62z m786 -108 c59 -49 89 -121
95 -232 7 -133 6 -134 -129 -96 l-108 30 0 46 c0 25 -7 72 -17 105 l-16 58 59
60 c32 32 63 59 69 59 6 0 27 -14 47 -30z m-396 -88 c52 -27 134 -138 134
-182 0 -13 -62 -13 -92 -1 -13 5 -66 19 -118 31 -129 29 -160 39 -160 54 0 19
70 82 115 103 48 23 67 23 121 -5z m-408 -265 c9 -6 12 -116 12 -495 0 -268
-4 -493 -9 -501 -7 -11 -24 -12 -87 -5 l-79 9 -6 155 c-8 191 -12 857 -5 868
5 9 153 -18 174 -31z m375 -68 c95 -17 175 -35 178 -41 4 -6 8 -187 8 -402 1
-215 4 -428 7 -472 4 -48 3 -84 -3 -87 -17 -10 -73 -8 -228 10 l-150 18 -6
495 c-3 272 -4 498 -2 503 6 10 7 10 196 -24z m435 -93 l57 -11 3 -479 2 -479
-67 7 c-46 4 -72 12 -80 23 -10 13 -13 105 -14 372 0 196 -2 403 -4 461 -2
106 4 133 31 123 8 -3 41 -11 72 -17z"/>
<path d="M9297 4193 c2 -307 6 -568 8 -579 4 -18 15 -23 62 -29 32 -3 139 -19
238 -35 181 -29 364 -56 420 -64 l31 -4 -3 302 c-5 545 -10 677 -24 691 -12
11 -106 47 -474 181 -49 18 -119 44 -155 57 -36 14 -75 27 -86 31 l-22 7 5
-558z m279 352 c54 -19 109 -40 121 -46 11 -6 27 -8 34 -4 7 5 10 4 6 -2 -4
-6 5 -14 21 -18 15 -3 57 -18 94 -32 56 -22 68 -31 71 -52 2 -14 3 -147 3
-296 -1 -268 -1 -270 -22 -267 -12 1 -115 34 -230 72 l-209 69 -6 108 c-4 59
-7 197 -8 306 -1 157 2 197 12 197 7 0 58 -16 113 -35z m32 -726 c81 -23 185
-53 232 -68 l85 -28 3 -63 c2 -35 -1 -67 -5 -71 -8 -8 -465 100 -479 113 -7 8
4 158 12 158 3 0 71 -18 152 -41z"/>
<path d="M3680 4559 c-25 -12 -85 -41 -135 -64 -49 -24 -106 -50 -125 -58
-100 -44 -146 -65 -270 -122 -74 -34 -162 -74 -194 -89 l-59 -26 6 -518 c4
-284 7 -571 7 -637 0 -66 4 -125 8 -131 8 -13 30 -9 272 42 69 14 166 34 215
44 212 44 253 53 300 64 l49 11 3 46 c2 26 -1 358 -6 740 -6 505 -11 694 -20
697 -6 2 -9 8 -5 13 7 12 5 12 -46 -12z m-80 -306 c0 -65 3 -225 6 -355 4
-131 4 -238 2 -238 -2 0 -49 -16 -104 -36 -54 -20 -135 -49 -179 -65 -44 -15
-117 -42 -163 -58 -68 -24 -84 -27 -89 -15 -3 7 -6 163 -7 345 l-1 332 140 58
c77 32 149 62 160 65 11 3 34 12 50 19 72 31 161 64 173 65 9 0 12 -30 12
-117z m28 -829 l3 -100 -83 -33 c-243 -96 -452 -170 -461 -162 -4 4 -6 50 -5
101 l3 92 195 78 c305 122 324 129 335 126 6 -1 11 -47 13 -102z"/>
<path d="M1885 4040 c-29 -13 -267 -108 -435 -175 -189 -74 -336 -134 -366
-147 l-25 -12 6 -460 c4 -254 8 -471 11 -483 4 -21 10 -23 69 -23 69 0 67 -2
77 63 3 18 64 42 261 102 31 10 57 22 57 27 0 5 4 7 9 4 5 -3 55 9 112 28 57
18 108 30 113 26 14 -13 27 -172 15 -187 -6 -7 -14 -12 -17 -11 -4 1 -16 -1
-27 -4 -11 -4 -37 -9 -58 -13 -79 -13 -20 -25 125 -25 l150 0 -7 637 c-8 703
-6 681 -70 653z m-120 -550 l7 -355 -38 -16 c-40 -17 -231 -85 -319 -114 -27
-9 -80 -28 -118 -42 -37 -14 -70 -23 -75 -19 -4 4 -7 163 -7 354 l0 345 70 29
c39 15 88 37 110 48 22 11 54 24 70 30 42 13 115 39 150 55 94 40 131 53 137
47 3 -4 9 -167 13 -362z"/>
<path d="M7965 3735 c-38 -24 -106 -68 -150 -96 -44 -28 -136 -88 -205 -132
-69 -44 -126 -83 -128 -88 -2 -5 -8 -9 -14 -9 -5 0 -73 -42 -151 -93 -78 -51
-180 -117 -227 -147 -47 -29 -87 -56 -90 -60 -3 -4 -16 -13 -30 -20 -14 -7
-74 -45 -135 -85 -60 -39 -135 -87 -165 -105 -73 -45 -122 -82 -116 -87 3 -3
74 -4 158 -4 l153 2 51 32 c112 70 152 96 307 198 556 365 783 513 797 516 9
2 36 -16 63 -42 28 -28 51 -44 58 -39 7 4 9 3 6 -3 -4 -6 59 -71 140 -145 81
-73 179 -162 218 -198 39 -36 114 -105 167 -153 52 -48 113 -101 134 -117 l39
-29 135 5 c74 3 137 7 140 10 5 6 -64 73 -154 149 -68 57 -146 124 -194 167
-19 17 -59 51 -90 76 -31 25 -59 48 -62 51 -6 7 -134 118 -174 152 -43 35
-122 103 -199 173 -80 70 -199 166 -207 166 -3 0 -36 -20 -75 -45z"/>
</g>
</svg>
